# xmcd
#
# Track frame offsets: 
#        150
#        21055
#        41374
#        63993
#        85249
#        107240
#        125245
#        148437
#        162606
#        181681
#        205242
#        227144
#        246104
#        266950
#        292423
#
# Disc length: 4103 seconds
#
# Revision: 10
# Processed by: cddbd v1.5.2PL0 Copyright (c) Steve Scherf et al.
# Submitted via: ExactAudioCopy v0.99pb5
#
DISCID=ec10050f
DTITLE=Southern All Stars - Umi no Yeah! (Disk II -sunny side-)
DYEAR=1900
DGENRE=Blues
TTITLE0=Manatsu no Kajitsu
TTITLE1=YOU
TTITLE2=SHULABA-LA-BAMBA
TTITLE3=Namida no Kiss
TTITLE4=Sayonara, Baby
TTITLE5=EROTICA SEVEN
TTITLE6=NO NO BIRDY
TTITLE7=Sonna Hiroshi ni Damasarete
TTITLE8=Manpy no G*SPOT
TTITLE9=Anatadakewo -Summer Heartbreak-
TTITLE10=MOON LIGHT LOVER
TTITLE11=Taiyo ha Tsumi na Yatsu
TTITLE12=Koi no Jack Knife
TTITLE13=Ai no Kotodama -Spiritual Message-
TTITLE14=Heiwa no Ryuka
EXTD=ID3G: 0
EXTT0=
EXTT1=
EXTT2=
EXTT3=
EXTT4=
EXTT5=
EXTT6=
EXTT7=
EXTT8=
EXTT9=
EXTT10=
EXTT11=
EXTT12=
EXTT13=
EXTT14=
PLAYORDER=
